<svg xmlns="http://www.w3.org/2000/svg" viewBox="0 0 71.9 71.2"><defs><style>.cls-1{fill:#d0d3d4;}.cls-2{fill:#00b2a9;}</style></defs><g id="Calque_8" data-name="Calque 8"><path class="cls-1" d="M13.39,57.62a.86.86,0,0,0-1.22,0L4.4,65.33a.86.86,0,0,0,1.22,1.21l7.77-7.72A.85.85,0,0,0,13.39,57.62Z"/><path class="cls-1" d="M60.64,58.66a.88.88,0,0,0-1.22,0,.85.85,0,0,0,0,1.21l7.68,7.81a.87.87,0,0,0,.61.26.87.87,0,0,0,.6-.25.84.84,0,0,0,0-1.2Z"/><path class="cls-1" d="M12.12,13a.87.87,0,0,0,.61.26.86.86,0,0,0,.62-1.45L5.67,4A.86.86,0,0,0,4.46,4a.84.84,0,0,0,0,1.2Z"/><path class="cls-1" d="M7,47.67a.84.84,0,0,0-1.13-.42L1.09,49.38a.86.86,0,0,0-.43,1.13.88.88,0,0,0,.78.5.94.94,0,0,0,.36-.08L6.55,48.8A.85.85,0,0,0,7,47.67Z"/><path class="cls-1" d="M59.93,13.07l7.13-7.31a.84.84,0,0,0,0-1.2.87.87,0,0,0-1.22,0l-7.13,7.3a.86.86,0,0,0,.61,1.45A.89.89,0,0,0,59.93,13.07Z"/><path class="cls-1" d="M23.79,6a.84.84,0,0,0,.79.53.78.78,0,0,0,.33-.07.85.85,0,0,0,.47-1.11l-2-4.8a.86.86,0,0,0-1.59.65Z"/><path class="cls-1" d="M47.9,6.45a1,1,0,0,0,.32.06A.87.87,0,0,0,49,6l2-4.81A.86.86,0,0,0,50.5.06a.87.87,0,0,0-1.12.47l-2,4.81A.85.85,0,0,0,47.9,6.45Z"/><path class="cls-1" d="M65.14,23.06a.86.86,0,0,0,.81.57.9.9,0,0,0,.28,0l4.94-1.69a.85.85,0,0,0,.53-1.08.86.86,0,0,0-1.09-.53L65.67,22A.87.87,0,0,0,65.14,23.06Z"/><path class="cls-1" d="M5.56,24.63a.82.82,0,0,0,.26,0,.85.85,0,0,0,.82-.59A.86.86,0,0,0,6.09,23l-5-1.59A.85.85,0,1,0,.59,23Z"/><path class="cls-1" d="M21.66,71A.71.71,0,0,0,22,71a.84.84,0,0,0,.8-.56l1.79-4.87A.86.86,0,0,0,22.93,65l-1.79,4.87A.85.85,0,0,0,21.66,71Z"/><path class="cls-1" d="M48.87,70.69a.85.85,0,0,0,.78.51.87.87,0,0,0,.35-.07A.85.85,0,0,0,50.44,70l-2.08-4.76a.86.86,0,0,0-1.57.68Z"/><path class="cls-1" d="M71.31,47.93l-5-1.59a.86.86,0,0,0-1.08.55A.85.85,0,0,0,65.81,48l5,1.6a1.27,1.27,0,0,0,.26,0,.86.86,0,0,0,.27-1.67Z"/><rect class="cls-2" x="34.22" y="17.74" width="15.41" height="16.67"/><rect class="cls-2" x="30.11" y="36.73" width="12.5" height="16.67"/><rect class="cls-2" x="21.6" y="23.64" width="10.84" height="10.77"/><rect class="cls-2" x="22.61" y="36.73" width="5.62" height="10.77"/><rect class="cls-2" x="44.69" y="36.73" width="5.62" height="10.77"/></g></svg>