<svg xmlns="http://www.w3.org/2000/svg" viewBox="0 0 72.9 72.2"><defs><style>.cls-1{fill:#1c1f2a;stroke:#000;stroke-miterlimit:10;}.cls-2{fill:#00b2a9;}</style></defs><g id="Calque_8" data-name="Calque 8"><path class="cls-1" d="M13.89,58.12a.86.86,0,0,0-1.22,0L4.9,65.83A.86.86,0,0,0,6.12,67l7.77-7.72A.85.85,0,0,0,13.89,58.12Z"/><path class="cls-1" d="M61.14,59.16a.88.88,0,0,0-1.22,0,.85.85,0,0,0,0,1.21l7.68,7.81a.87.87,0,0,0,.61.26.87.87,0,0,0,.6-.25.84.84,0,0,0,0-1.2Z"/><path class="cls-1" d="M12.62,13.53a.87.87,0,0,0,.61.26.86.86,0,0,0,.62-1.45L6.17,4.53A.86.86,0,0,0,5,4.52a.84.84,0,0,0,0,1.2Z"/><path class="cls-1" d="M7.48,48.17a.84.84,0,0,0-1.13-.42L1.59,49.88A.86.86,0,0,0,1.16,51a.88.88,0,0,0,.78.5.94.94,0,0,0,.36-.08L7.05,49.3A.85.85,0,0,0,7.48,48.17Z"/><path class="cls-1" d="M60.43,13.57l7.13-7.31a.84.84,0,0,0,0-1.2.87.87,0,0,0-1.22,0l-7.13,7.3a.86.86,0,0,0,.61,1.45A.89.89,0,0,0,60.43,13.57Z"/><path class="cls-1" d="M24.29,6.48a.84.84,0,0,0,.79.53.78.78,0,0,0,.33-.07.85.85,0,0,0,.47-1.11L23.9,1a.86.86,0,0,0-1.59.65Z"/><path class="cls-1" d="M48.4,7a1,1,0,0,0,.32.06.87.87,0,0,0,.8-.53l2-4.81A.86.86,0,0,0,51,.56.87.87,0,0,0,49.88,1l-2,4.81A.85.85,0,0,0,48.4,7Z"/><path class="cls-1" d="M65.64,23.56a.86.86,0,0,0,.81.57.9.9,0,0,0,.28,0l4.94-1.69a.85.85,0,0,0,.53-1.08.86.86,0,0,0-1.09-.53l-4.94,1.68A.87.87,0,0,0,65.64,23.56Z"/><path class="cls-1" d="M6.06,25.13a.82.82,0,0,0,.26,0,.85.85,0,0,0,.82-.59.86.86,0,0,0-.55-1.07l-5-1.59a.85.85,0,1,0-.53,1.62Z"/><path class="cls-1" d="M22.16,71.47a.71.71,0,0,0,.29,0,.84.84,0,0,0,.8-.56L25,66.09a.86.86,0,0,0-1.61-.58l-1.79,4.87A.85.85,0,0,0,22.16,71.47Z"/><path class="cls-1" d="M49.37,71.19a.85.85,0,0,0,.78.51.87.87,0,0,0,.35-.07.85.85,0,0,0,.44-1.12l-2.08-4.76a.86.86,0,0,0-1.57.68Z"/><path class="cls-1" d="M71.81,48.43l-5-1.59a.86.86,0,0,0-1.08.55.85.85,0,0,0,.55,1.07l5,1.6a1.27,1.27,0,0,0,.26,0,.86.86,0,0,0,.27-1.67Z"/><rect class="cls-2" x="34.72" y="18.24" width="15.41" height="16.67"/><rect class="cls-2" x="30.61" y="37.23" width="12.5" height="16.67"/><rect class="cls-2" x="22.1" y="24.14" width="10.84" height="10.77"/><rect class="cls-2" x="23.11" y="37.23" width="5.62" height="10.77"/><rect class="cls-2" x="45.19" y="37.23" width="5.62" height="10.77"/></g></svg>