<svg id="Calque_1" data-name="Calque 1" xmlns="http://www.w3.org/2000/svg" viewBox="0 0 28 27"><defs><style>.cls-1{fill:#fff;}.cls-2,.cls-3{fill:#00b2a9;}.cls-3{fill-rule:evenodd;}</style></defs><ellipse class="cls-1" cx="14.1" cy="13.5" rx="13.65" ry="13.25"/><path class="cls-2" d="M14.1.5a13.22,13.22,0,0,1,13.4,13,13.22,13.22,0,0,1-13.4,13A13.22,13.22,0,0,1,.71,13.5,13.22,13.22,0,0,1,14.1.5m0-.5A13.7,13.7,0,0,0,.21,13.5,13.7,13.7,0,0,0,14.1,27,13.7,13.7,0,0,0,28,13.5,13.7,13.7,0,0,0,14.1,0Z"/><polygon class="cls-3" points="8.01 23.03 8.07 13.47 8.13 3.9 16.63 8.73 25.13 13.57 16.57 18.3 8.01 23.03"/></svg>